<?xml version="1.0" encoding="utf-8"?>
<!-- Generator: Adobe Illustrator 16.0.0, SVG Export Plug-In . SVG Version: 6.00 Build 0)  -->
<!DOCTYPE svg PUBLIC "-//W3C//DTD SVG 1.1//EN" "http://www.w3.org/Graphics/SVG/1.1/DTD/svg11.dtd">
<svg version="1.1" id="Layer_1" xmlns="http://www.w3.org/2000/svg" xmlns:xlink="http://www.w3.org/1999/xlink" x="0px" y="0px"
	 width="390px" height="114px" viewBox="0 0 390 114" enable-background="new 0 0 390 114" xml:space="preserve">
<g>
	<g>
		<path fill="#FFFFFF" d="M131.375,31.279l6.916,42.386l7.099-42.386h5.202L140.8,83.461h-8.751l-9.853-52.182H131.375z"/>
		<path fill="#FFFFFF" d="M163.443,29.492c1.387,0,2.57,0.493,3.549,1.479c0.979,0.985,1.469,2.197,1.469,3.635
			c0,1.437-0.489,2.649-1.469,3.634c-0.979,0.986-2.163,1.479-3.549,1.479c-1.429,0-2.643-0.492-3.642-1.479
			c-1-0.985-1.499-2.197-1.499-3.634c0-1.438,0.499-2.65,1.499-3.635C160.8,29.985,162.014,29.492,163.443,29.492z M167.972,40.952
			v42.448h-9.119V43.786L167.972,40.952z"/>
		<path fill="#FFFFFF" d="M182.843,29.492c1.387,0,2.57,0.493,3.549,1.479c0.979,0.985,1.469,2.197,1.469,3.635
			c0,1.437-0.489,2.649-1.469,3.634c-0.979,0.986-2.163,1.479-3.549,1.479c-1.429,0-2.643-0.492-3.642-1.479
			c-1-0.985-1.499-2.197-1.499-3.634c0-1.438,0.499-2.65,1.499-3.635C180.2,29.985,181.414,29.492,182.843,29.492z M187.372,40.952
			v42.448h-9.119V43.786L187.372,40.952z"/>
		<path fill="#FFFFFF" d="M211.729,31.279l11.261,33.884l11.016-33.884h6.488v52.12h-8.998V49.762l-10.464,32.343l-11.445-32.898
			v34.192h-5.262v-52.12H211.729z"/>
		<path fill="#FFFFFF" d="M259.587,40.706v31.728c0,2.094,0.447,3.799,1.345,5.114c0.897,1.315,2.102,1.971,3.611,1.971
			c0.775,0,1.447-0.194,2.02-0.585c0.571-0.39,1.051-0.893,1.438-1.509c0.387-0.617,0.683-1.294,0.887-2.033
			s0.307-1.457,0.307-2.157V43.539l9.058-2.833v42.694h-7.405l-0.796-2.958c-0.938,1.479-2.102,2.526-3.488,3.142
			c-1.388,0.616-2.897,0.924-4.528,0.924c-1.633,0-3.143-0.267-4.529-0.801c-1.388-0.533-2.592-1.294-3.61-2.279
			c-1.021-0.986-1.827-2.167-2.418-3.542c-0.591-1.376-0.887-2.927-0.887-4.652V43.539L259.587,40.706z"/>
		<path fill="#FFFFFF" d="M295.754,41.383l6.916,26.738l7.71-26.738h4.896l-13.035,43.125h-2.693l-13.586-43.125H295.754z"/>
		<path fill="#FFFFFF" d="M327.884,29.492c1.387,0,2.571,0.493,3.55,1.479c0.979,0.985,1.469,2.197,1.469,3.635
			c0,1.437-0.489,2.649-1.469,3.634c-0.979,0.986-2.163,1.479-3.55,1.479c-1.429,0-2.643-0.492-3.642-1.479
			c-1-0.985-1.499-2.197-1.499-3.634c0-1.438,0.499-2.65,1.499-3.635C325.241,29.985,326.455,29.492,327.884,29.492z
			 M332.413,40.952v42.448h-9.119V43.786L332.413,40.952z"/>
		<path fill="#FFFFFF" d="M347.284,29.492c1.387,0,2.57,0.493,3.549,1.479c0.979,0.985,1.469,2.197,1.469,3.635
			c0,1.437-0.489,2.649-1.469,3.634c-0.979,0.986-2.162,1.479-3.549,1.479c-1.429,0-2.643-0.492-3.642-1.479
			c-1-0.985-1.499-2.197-1.499-3.634c0-1.438,0.499-2.65,1.499-3.635C344.642,29.985,345.855,29.492,347.284,29.492z
			 M351.813,40.952v42.448h-9.118V43.786L351.813,40.952z"/>
		<path fill="#FFFFFF" d="M390,41.383l-18.605,37.519h17.137v4.498h-28.029l18.604-37.519h-16.83v-4.498H390z"/>
	</g>
	<g>
		<path fill="#FFFFFF" d="M100.799,41.868c-0.764-0.459-1.711-0.481-2.494-0.057L81.96,50.667v-7.589
			c0-1.405-1.132-2.545-2.528-2.545h-4.11c5.126-4.185,8.41-10.574,8.41-17.722C83.732,10.233,73.566,0,61.071,0
			C50.407,0,41.44,7.456,39.042,17.461c-3.137-3.811-7.871-6.242-13.16-6.242c-9.422,0-17.087,7.717-17.087,17.202
			c0,4.72,1.899,9.001,4.968,12.112h-2.308c-1.396,0-2.528,1.14-2.528,2.545V54.63h-6.4C1.132,54.63,0,55.769,0,57.174v10.006
			c0,1.406,1.132,2.545,2.528,2.545h6.399v11.551c0,1.406,1.132,2.544,2.528,2.544h29.82l-13.701,26.458
			c-0.646,1.244-0.165,2.782,1.073,3.432c0.374,0.196,0.773,0.289,1.167,0.289c0.912,0,1.792-0.498,2.243-1.368l13.386-25.851
			l13.387,25.851c0.451,0.87,1.332,1.368,2.244,1.368c0.394,0,0.793-0.093,1.166-0.289c1.238-0.649,1.719-2.188,1.073-3.432
			L49.611,83.821h29.82c1.396,0,2.528-1.139,2.528-2.544v-7.589l16.345,8.856c0.375,0.202,0.787,0.304,1.198,0.304
			c0.449,0,0.898-0.12,1.296-0.359c0.764-0.46,1.231-1.29,1.231-2.186V44.052C102.031,43.156,101.563,42.327,100.799,41.868z
			 M8.928,64.636H5.056v-4.918h3.872V64.636z M61.071,5.089c9.707,0,17.605,7.95,17.605,17.722c0,9.772-7.897,17.722-17.605,17.722
			c-9.707,0-17.604-7.95-17.604-17.722C43.467,13.04,51.365,5.089,61.071,5.089z M41.769,34.746c1.35,2.206,3.063,4.162,5.053,5.787
			h-8.819C39.619,38.894,40.908,36.929,41.769,34.746z M25.883,16.31c6.634,0,12.032,5.433,12.032,12.111
			c0,6.679-5.397,12.112-12.032,12.112c-6.634,0-12.031-5.433-12.031-12.112C13.852,21.743,19.249,16.31,25.883,16.31z
			 M76.904,54.927v14.5v9.305H45.489c-0.005,0-0.009,0-0.014,0h-0.067c-0.003,0-0.005,0-0.008,0H13.982V67.18V57.173V45.622h62.922
			V54.927z M96.975,76.043L81.96,67.906V56.447l15.015-8.136V76.043z"/>
		<path fill="#FFFFFF" d="M25.883,36.151c4.234,0,7.678-3.468,7.678-7.73c0-4.262-3.444-7.729-7.678-7.729
			c-4.234,0-7.678,3.468-7.678,7.729C18.205,32.683,21.649,36.151,25.883,36.151z M25.883,25.271c1.726,0,3.129,1.413,3.129,3.149
			c0,1.737-1.403,3.15-3.129,3.15c-1.725,0-3.128-1.413-3.128-3.15C22.754,26.684,24.158,25.271,25.883,25.271z"/>
		<path fill="#FFFFFF" d="M61.071,33.912c6.081,0,11.027-4.98,11.027-11.101c0-6.121-4.946-11.101-11.027-11.101
			c-6.081,0-11.027,4.98-11.027,11.101C50.044,28.932,54.991,33.912,61.071,33.912z M61.071,16.8c3.293,0,5.972,2.697,5.972,6.012
			c0,3.314-2.679,6.011-5.972,6.011c-3.292,0-5.971-2.697-5.971-6.011C55.1,19.497,57.779,16.8,61.071,16.8z"/>
		<path fill="#FFFFFF" d="M25.433,71.332h27.483c1.326,0,2.401-1.083,2.401-2.417V55.439c0-1.334-1.075-2.417-2.401-2.417H25.433
			c-1.327,0-2.401,1.083-2.401,2.417v13.475C23.031,70.25,24.106,71.332,25.433,71.332z M27.834,57.857h22.681v8.639l0,0H27.834
			V57.857z"/>
		<ellipse fill="#FFFFFF" cx="66.174" cy="57.984" rx="2.528" ry="2.545"/>
		<ellipse fill="#FFFFFF" cx="66.174" cy="66.369" rx="2.528" ry="2.545"/>
	</g>
</g>
</svg>
